<svg id="레이어_1" data-name="레이어 1" xmlns="http://www.w3.org/2000/svg" viewBox="0 0 262.65 402.79"><defs><style>.cls-1{fill:#f5f5f5;}.cls-1,.cls-2,.cls-3,.cls-4,.cls-5,.cls-6,.cls-7,.cls-8{fill-rule:evenodd;}.cls-2{fill:#e9e9eb;}.cls-3{fill:#dddee1;}.cls-4{fill:#d1d2d6;}.cls-5{fill:#fac13c;}.cls-6{fill:#d19917;}.cls-7{fill:#f0b11d;}.cls-8{fill:#ffcb05;}</style></defs><path class="cls-1" d="M343.33,348.31c51.29,29.63,51.29,77.64,0,107.27s-134.44,29.62-185.71,0-51.29-77.64,0-107.27S292.05,318.7,343.33,348.31Z" transform="translate(-119.15 -75)"/><path class="cls-2" d="M327.15,357.66c42.36,24.45,42.36,64.11,0,88.57s-111,24.46-153.36,0-42.35-64.12,0-88.57S284.8,333.2,327.15,357.66Z" transform="translate(-119.15 -75)"/><path class="cls-3" d="M311,367c33.41,19.3,33.41,50.59,0,69.89s-87.6,19.3-121,0-33.4-50.59,0-69.89S277.56,347.71,311,367Z" transform="translate(-119.15 -75)"/><path class="cls-4" d="M294.79,376.35c24.49,14.13,24.49,37,0,51.19s-64.16,14.15-88.64,0-24.49-37.06,0-51.19S270.33,362.2,294.79,376.35Z" transform="translate(-119.15 -75)"/><path class="cls-5" d="M330.8,242.58c0-41.13-.17-153-.86-154.47-1.93-4.26-6.54-5.18-11.57-2.27q-51.21,29.53-102.39,59l-.23-6.85c-.24-7.54-5.81-10.56-12.52-6.69l-43.55,25.13c-6.86,4-12.54,13.68-12.54,21.68l0,170.41c0,9.22,6.5,13,14.48,8.37l154.76-89.26a32,32,0,0,0,14.47-25.1Z" transform="translate(-119.15 -75)"/><path class="cls-6" d="M326.76,84.76l-15.88-9.17-1.42-.48-1.6-.11-1.7.19-1.8.56-1.87.92L299.3,78.5l-3.21,1.86-3.2,1.85-3.2,1.85-3.21,1.83-3.19,1.85-3.21,1.85-3.17,1.84-3.21,1.85-3.2,1.85L267.3,97l-3.21,1.85-3.19,1.85-3.21,1.84-3.2,1.85-3.2,1.85-3.2,1.85-3.18,1.83-3.21,1.86-3.2,1.85-3.2,1.83-3.2,1.85-3.2,1.85L225.7,121l-3.2,1.86-3.2,1.85-3.21,1.83-3.18,1.85-2.29,1.31-14.56-8.41-1.85-.63-2.09-.08-2.32.52-2.45,1.14-43.54,25.13-1.27.81-1.24.93-1.19,1L139,151.24l-1.08,1.25-1,1.31-1,1.39-.88,1.45-.82,1.48-.73,1.55-.64,1.55-.51,1.57-.43,1.58-.31,1.56-.19,1.55-.08,1.52-.05,156.54v4.63l.28,3.18.16.51c2.16,13.6,11.63,28.35,23,34.89,12.07,6.95,22.74,2.31,23.93-10.46l.08,0v-1.44c0-.47,0-1,0-1.45l0-.83h0l.07-125.46.06-1.5.2-1.57.31-1.55.42-1.57.54-1.58.62-1.56.73-1.53.81-1.48.89-1.45,1-1.39,1-1.32,1.1-1.24,1.14-1.14,1.2-1,1.23-1,1.27-.8L349.92,115.9l1.87-.9,1.79-.57,1.72-.21,1.58.14,1.43.46-16.49-9.52-1.45-.47-1.58-.13-1.69.21-1.82.56-1.85.9L174.75,197.94l-1.28.8-1.23.95-1.2,1-1.16,1.13-1.08,1.23-1,1.34-1,1.38-.89,1.45-.81,1.49-.73,1.54-.64,1.54-.52,1.59-.42,1.55-.31,1.59-.2,1.54-.07,1.53-.06,125.61-.06,0c0,.28,0,.58,0,.85,0,4.78-3.36,6.73-7.5,4.33-3.91-2.25-7.19-9.58-7.54-12.55V328.3h0l0-150.14a11.41,11.41,0,0,1,.09-1.53,12,12,0,0,1,.19-1.54,14.29,14.29,0,0,1,.3-1.56c.12-.54.27-1.06.43-1.58s.33-1,.52-1.56.41-1,.64-1.57.46-1,.73-1.52.52-1,.81-1.5.57-1,.89-1.45.63-.93,1-1.39.68-.89,1-1.31.71-.85,1.08-1.26.75-.76,1.16-1.13.79-.72,1.19-1,.81-.64,1.24-.93a12.49,12.49,0,0,1,1.27-.81l43.55-25.13a14.75,14.75,0,0,1,2.45-1.14,10.25,10.25,0,0,1,2.31-.51,7.61,7.61,0,0,1,2.09.07c3.29.6,5.53,3.54,5.67,8.27l.23,6.85,3.2-1.85,3.2-1.83,3.2-1.85,3.18-1.85,3.21-1.84,3.19-1.85,3.21-1.85,3.2-1.85,3.2-1.83,3.21-1.85,3.19-1.86,3.21-1.83,3.2-1.85,3.18-1.85,3.2-1.83,3.2-1.86,3.21-1.85,3.19-1.83,3.21-1.85L280,108l3.2-1.85,3.2-1.84,3.18-1.85,3.21-1.85,3.2-1.83,3.2-1.85,3.2-1.85,3.2-1.84,3.2-1.85,3.2-1.85,3.21-1.85,3.2-1.83a14.56,14.56,0,0,1,1.85-.93,13.82,13.82,0,0,1,1.81-.56,8.51,8.51,0,0,1,1.7-.19,7.36,7.36,0,0,1,1.58.11A7.73,7.73,0,0,1,326.76,84.76Z" transform="translate(-119.15 -75)"/><polygon class="cls-7" points="62.31 143.55 62.44 143.27 63.25 141.79 64.14 140.34 65.1 138.95 66.14 137.63 67.25 136.39 68.38 135.25 69.58 134.21 70.81 133.26 72.08 132.46 230.77 40.9 232.64 40 234.43 39.44 236.15 39.22 237.73 39.36 239.16 39.82 222.67 30.3 221.22 29.83 219.64 29.7 217.95 29.91 216.13 30.47 214.28 31.37 55.6 122.94 54.32 123.74 53.09 124.69 51.89 125.73 50.73 126.86 49.65 128.09 48.61 129.43 47.65 130.81 46.76 132.26 45.95 133.75 45.81 134.01 62.31 143.55"/><path class="cls-7" d="M326.76,84.76l-15.88-9.17-1.42-.48-1.6-.11-1.7.19-1.8.56-1.87.92L299.3,78.5l-3.21,1.86-3.2,1.85-3.2,1.85-3.21,1.83-3.19,1.85-3.21,1.85-3.17,1.84-3.21,1.85-3.2,1.85L267.3,97l-3.21,1.85-3.19,1.85-3.21,1.84-3.2,1.85-3.2,1.85-3.2,1.85-3.18,1.83-3.21,1.86-3.2,1.85-3.2,1.83-3.2,1.85-3.2,1.85L225.7,121l-3.2,1.86-3.2,1.85-3.21,1.83-3.18,1.85-2.29,1.33-14.56-8.43-1.85-.63-2.09-.08-2.32.52-2.45,1.14-43.54,25.13-1.27.81-1.24.93-1.19,1L139,151.24l-1.08,1.25-.92,1.17,15.85,9.16c.3-.4.61-.79.94-1.17s.71-.85,1.08-1.24.77-.78,1.16-1.15.79-.72,1.19-1,.81-.64,1.24-.93.82-.56,1.27-.81l43.55-25.13a14,14,0,0,1,2.45-1.14,10.25,10.25,0,0,1,2.31-.51,7.61,7.61,0,0,1,2.09.07c3.29.6,5.53,3.54,5.67,8.27l.23,6.85,3.2-1.85,3.2-1.83,3.2-1.85,3.18-1.85,3.21-1.84,3.19-1.85,3.21-1.85,3.2-1.85,3.2-1.83,3.21-1.85,3.19-1.86,3.21-1.83,3.2-1.85,3.18-1.85,3.2-1.83,3.2-1.86,3.21-1.85,3.19-1.83,3.21-1.85L280,108l3.2-1.84,3.2-1.85,3.18-1.85,3.21-1.85,3.2-1.83,3.2-1.85,3.2-1.85,3.2-1.84,3.2-1.85,3.2-1.85,3.21-1.85,3.2-1.83a14.56,14.56,0,0,1,1.85-.93,13.82,13.82,0,0,1,1.81-.56,8.51,8.51,0,0,1,1.7-.19,7.36,7.36,0,0,1,1.58.11A7.73,7.73,0,0,1,326.76,84.76Z" transform="translate(-119.15 -75)"/><path class="cls-8" d="M362.36,243.77v-8.28c0-43-.21-115.88-.87-117.31-1.93-4.26-6.52-5.19-11.57-2.28L191.23,207.46c-6.84,3.95-12.52,13.68-12.52,21.67l-.07,120.64L173,369.62,347.88,268.86a32.11,32.11,0,0,0,14.48-25.09Z" transform="translate(-119.15 -75)"/></svg>