<svg id="레이어_1" data-name="레이어 1" xmlns="http://www.w3.org/2000/svg" viewBox="0 0 266.88 448.79"><defs><style>.cls-1{fill:#f5f5f5;}.cls-1,.cls-10,.cls-11,.cls-12,.cls-13,.cls-14,.cls-15,.cls-16,.cls-17,.cls-18,.cls-2,.cls-3,.cls-4,.cls-5,.cls-6,.cls-7,.cls-8,.cls-9{fill-rule:evenodd;}.cls-2{fill:#e9e9eb;}.cls-3{fill:#dddee1;}.cls-4{fill:#d1d2d6;}.cls-5{fill:#bab8b8;}.cls-6{fill:#e6e6e6;}.cls-7{fill:#c43e3f;}.cls-8{fill:#e74c3c;}.cls-9{fill:#2c3e50;}.cls-10{fill:#3d566e;}.cls-11{fill:#415a73;}.cls-12{fill:#e3cca4;}.cls-13{fill:#ffe7bd;}.cls-14{fill:#e6eaeb;}.cls-15{fill:#9c9c9c;}.cls-16{fill:#263d52;}.cls-17{fill:#344e66;}.cls-18{fill:#1d2c3b;}</style></defs><path class="cls-1" d="M343.33,339.31c51.29,29.63,51.29,77.64,0,107.27s-134.44,29.62-185.71,0-51.29-77.64,0-107.27S292.05,309.7,343.33,339.31Z" transform="translate(-114.91 -20)"/><path class="cls-2" d="M327.15,348.66c42.36,24.45,42.36,64.11,0,88.57s-111,24.46-153.36,0-42.35-64.12,0-88.57S284.8,324.2,327.15,348.66Z" transform="translate(-114.91 -20)"/><path class="cls-3" d="M311,358c33.41,19.3,33.41,50.59,0,69.89s-87.6,19.3-121,0-33.4-50.59,0-69.89S277.56,338.71,311,358Z" transform="translate(-114.91 -20)"/><path class="cls-4" d="M294.79,367.35c24.49,14.13,24.49,37,0,51.19s-64.16,14.15-88.64,0-24.49-37.06,0-51.19S270.33,353.2,294.79,367.35Z" transform="translate(-114.91 -20)"/><polygon class="cls-5" points="84.52 243.15 80.41 240.77 79.6 240.22 78.89 239.52 78.28 238.71 77.75 237.75 77.33 236.7 77.04 235.5 76.85 234.19 76.78 232.78 76.78 114.86 80.89 117.22 80.89 235.17 80.95 236.57 81.14 237.88 81.46 239.06 81.86 240.13 82.39 241.08 83 241.91 83.71 242.58 84.52 243.15"/><polygon class="cls-6" points="80.89 117.22 76.78 114.86 241.74 19.61 245.85 21.99 80.89 117.22"/><path class="cls-6" d="M360.76,42V159.91c0,7.86-5.54,17.46-12.34,21.38q-70.11,40.5-140.27,81c-6.8,3.91-12.35.71-12.35-7.12V137.22Z" transform="translate(-114.91 -20)"/><polygon class="cls-7" points="175.68 123.96 172.69 122.17 206.82 63.08 207.78 61.61 208.79 60.43 209.83 59.52 210.84 58.89 211.85 58.51 212.8 58.39 213.66 58.48 214.44 58.79 217.43 60.58 216.66 60.26 215.79 60.18 214.84 60.3 213.83 60.68 212.82 61.31 211.79 62.22 210.78 63.4 209.81 64.87 175.68 123.96"/><polygon class="cls-7" points="109.43 197.48 106.44 195.69 105.79 195.16 105.26 194.44 104.91 193.56 104.73 192.5 104.76 191.31 105.03 189.96 105.56 188.49 106.33 186.9 109.33 188.69 108.53 190.28 108.02 191.75 107.75 193.1 107.71 194.3 107.89 195.35 108.25 196.24 108.78 196.95 109.43 197.48"/><polygon class="cls-7" points="109.33 188.69 106.33 186.9 107.92 184.19 109.45 181.54 110.95 178.92 112.43 176.37 113.88 173.87 115.31 171.4 116.7 168.96 118.09 166.58 119.44 164.22 120.79 161.88 122.12 159.59 123.44 157.29 124.75 155.04 126.06 152.76 127.36 150.5 128.64 148.27 129.95 146.02 131.26 143.76 132.56 141.51 133.87 139.24 135.2 136.96 136.53 134.65 137.87 132.33 139.22 129.96 140.61 127.56 142 125.14 143.43 122.68 144.89 120.17 146.36 117.62 147.86 115.01 149.4 112.34 150.97 109.62 153.97 111.41 152.38 114.14 150.85 116.8 149.33 119.41 147.86 121.96 146.42 124.47 144.99 126.93 143.6 129.35 142.21 131.75 140.86 134.12 139.51 136.44 138.17 138.75 136.86 141.02 135.55 143.3 134.25 145.56 132.94 147.81 131.64 150.07 130.35 152.32 129.04 154.55 127.73 156.82 126.43 159.08 125.1 161.38 123.78 163.67 122.43 166.01 121.08 168.37 119.69 170.75 118.31 173.19 116.87 175.66 115.41 178.16 113.94 180.71 112.45 183.32 110.91 185.98 109.33 188.69"/><polygon class="cls-7" points="153.97 111.41 150.97 109.62 151.02 109.66 151.18 109.74 151.46 109.92 151.81 110.12 152.28 110.38 152.81 110.69 153.44 111.05 154.11 111.43 154.85 111.87 155.65 112.31 156.49 112.82 157.36 113.33 158.28 113.85 159.23 114.4 160.18 114.95 161.15 115.52 162.13 116.06 163.11 116.63 164.07 117.2 165.03 117.75 165.95 118.28 166.85 118.8 167.72 119.31 168.54 119.77 169.3 120.21 170.02 120.64 170.67 121 171.24 121.33 171.74 121.63 172.17 121.86 172.48 122.04 172.69 122.17 175.68 123.96 175.47 123.83 175.15 123.65 174.74 123.42 174.23 123.12 173.66 122.78 173.01 122.42 172.29 122 171.53 121.56 170.71 121.1 169.85 120.59 168.94 120.07 168.01 119.54 167.07 118.99 166.09 118.42 165.13 117.85 164.14 117.31 163.17 116.74 162.2 116.19 161.27 115.64 160.35 115.12 159.46 114.61 158.64 114.11 157.84 113.66 157.1 113.22 156.4 112.84 155.79 112.49 155.27 112.17 154.81 111.91 154.45 111.71 154.18 111.53 154 111.45 153.97 111.41"/><path class="cls-8" d="M290.6,144l34.12-59.09c5-8.69,12.77-4.23,7.74,4.49L290.6,161.85,268.88,149.3c-14.39,24.89-22.52,39-36.89,63.88-5,8.7-12.76,4.24-7.75-4.49l44.64-77.28Z" transform="translate(-114.91 -20)"/><polygon class="cls-9" points="82.52 120.91 71.81 114.74 71.52 114.51 71.33 114.08 71.27 113.45 81.97 119.62 82.05 120.27 82.22 120.7 82.52 120.91"/><polygon class="cls-9" points="81.97 119.62 71.27 113.45 71.27 100.56 81.97 106.73 81.97 119.62"/><polygon class="cls-9" points="81.97 106.73 71.27 100.56 71.3 100.1 71.41 99.61 71.6 99.15 71.83 98.69 72.11 98.26 72.42 97.86 72.78 97.53 73.16 97.27 83.86 103.44 83.48 103.72 83.13 104.06 82.81 104.44 82.53 104.88 82.3 105.32 82.11 105.81 82 106.27 81.97 106.73"/><path class="cls-9" d="M198.78,123.44l-10.71-6.17,5.27-3,157.52-91,5.25-3,10.7,6.19-5.25,3-5.24,3-5.25,3-5.26,3Q277.56,78,209.28,117.38l-5.24,3Z" transform="translate(-114.91 -20)"/><polygon class="cls-10" points="251.9 6.44 241.19 0.25 241.57 0.08 241.93 0 242.26 0.01 242.54 0.13 253.24 6.29 252.97 6.19 252.63 6.19 252.3 6.25 251.9 6.44"/><path class="cls-11" d="M200,140l-.06,0-.07.05-.06,0-.09,0-.06,0c-1.31.76-2.8,1.5-2.8-.57V126.73a4.26,4.26,0,0,1,1.9-3.29l168-97c1.05-.61,1.92-.12,1.92,1.1V40.41c0,2.06-1.5,3.05-2.8,3.81l-.07,0-.08.05-.07,0-.06,0-.07,0Z" transform="translate(-114.91 -20)"/><path class="cls-9" d="M288.43,332.1l0-24.71c0-19.76-24.38-26.93-41.21-28.38-1.43,2.91-2.88,5.84-4.38,8.62,13.21,23.73,1.9,74.5-12.68,96,33-19.06,58.25-44.25,58.25-51.49ZM161.7,302l-.8-.84c.27.27.53.57.8.84Zm-.86-.9,0,0c-8.47,11-20.14,19.15-29.5,29.32l-1.68,1.89L128,334.24l-1.58,1.94-1.52,2-1.43,2-1.35,2-1.26,2-1.16,2-1.06,2.07-1,2.1-.79,2.15-.7,2.17-.55,2.19-.39,2.26L115,361.4l-.08,2.31v15.44l0,.78v3.86c0,7.43,1,9.39,9,14.06,26.17,15.09,59.3,8.54,89-5.23-18-17.07-14.2-36.89-22.14-55.11C185.48,325.37,170.23,311.73,160.84,301.11Z" transform="translate(-114.91 -20)"/><path class="cls-12" d="M160.82,301.09c1.28-1.62,5-5.46,6-7.19,2-3.41,2-4.72,2.36-8.74,17.21,19.91,57.64,31.58,73.18,3.35h0c4.38,10.49-8.14,30.69-24.19,36.67-11.81,4.43-29.8,1.69-38.92-6.61L163.83,304.5Z" transform="translate(-114.91 -20)"/><path class="cls-13" d="M232.84,302c6.5-6.26,11.79-17.65,16.87-28,6.93-14.2,6.58-30.38,6.66-43.44L254,222.81a41.56,41.56,0,0,1-1-9.86c-.09-4.23-.15-8.15-2.35-10.15-3.49-3.2-9,1.68-15.52,7.43-4.42,3.9-9.22,8.15-14.45,11.17a55.35,55.35,0,0,1-14.45,5.49l0,0c-4.25,1.14-8.11,2.2-11.24,4.83-4.89,4.11-4.66,7.44-4.57,13.31.08,5.54.35,11-3,22.82-.06-.43-.15-.86-.21-1.27s-.15-.84-.23-1.24-.15-.78-.23-1.18-.19-.76-.3-1.11-.19-.72-.3-1.08-.2-.7-.31-1h0c-.11-.34-.21-.66-.34-1s-.23-.64-.36-.93l-.37-.88c-.13-.28-.28-.55-.41-.83s-.27-.52-.41-.78-.28-.48-.43-.71l-.44-.7c-.15-.21-.31-.41-.46-.63h0c-.15-.21-.32-.4-.46-.59s-.32-.38-.49-.55l-.51-.5h0c-.16-.15-.31-.31-.5-.46s-.34-.28-.51-.4h0a4.4,4.4,0,0,0-.5-.38l-.53-.34h0l-.54-.29c-.18-.09-.37-.17-.53-.26s-.36-.15-.55-.2-.36-.12-.53-.18h0l-.54-.12a2.81,2.81,0,0,0-.55-.08,1.93,1.93,0,0,0-.53-.07h0a5.24,5.24,0,0,0-.55,0h0a4.78,4.78,0,0,0-.54,0h0a5.11,5.11,0,0,0-.53,0h0a4.89,4.89,0,0,0-.53.09h0l-.53.12h0a4.74,4.74,0,0,0-.5.15h0l-.51.19c-.17.06-.33.15-.5.21h0l-.48.25h0c-.15.11-.32.19-.47.29h0a2.91,2.91,0,0,0-.46.32h0a3.22,3.22,0,0,0-.46.34,3.89,3.89,0,0,0-.43.38h0a3.16,3.16,0,0,0-.42.4h0a4.16,4.16,0,0,0-.42.42h0c-.12.15-.26.3-.38.46h0a3.43,3.43,0,0,0-.36.49h0c-.13.17-.25.34-.36.5h0c-.1.17-.2.36-.31.53l-.32.57h0c-.1.19-.18.38-.27.59h0a5.67,5.67,0,0,0-.28.61h0c-.08.21-.14.42-.23.64h0c-.06.2-.15.44-.21.64s-.12.45-.17.68h0c-.06.23-.12.46-.17.71s-.08.47-.13.72-.05.49-.08.74h0l-.06.76c0,.25,0,.52,0,.78v.8c0,.28,0,.54,0,.82l.06.82c.05.28.07.57.11.84s.1.6.15.89h0c.06.27.12.57.19.86a50.47,50.47,0,0,0,4.93,11.93c.58,1.09-.2,4.06-.7,5.68,12.41,14.08,30.46,23.72,44.83,23.7C220.62,309.09,228.16,306.5,232.84,302Z" transform="translate(-114.91 -20)"/><path class="cls-9" d="M153.57,195.29c-11.46,21-4.26,78.52,15.53,91,.4-1,1.72-5.22,1-6.56a50.47,50.47,0,0,1-4.93-11.93c-4.3-18.94,18.26-27.82,22.22.09,3.37-11.8,3.1-17.28,3-22.82-.09-5.87-.32-9.2,4.57-13.31,3.13-2.63,7-3.69,11.24-4.83l0,0a55.35,55.35,0,0,0,14.45-5.49c5.23-3,10-7.27,14.45-11.17,6.49-5.75,12-10.63,15.52-7.43,2.2,2,2.26,5.92,2.35,10.15a41.56,41.56,0,0,0,1,9.86l2.38,7.73a161.91,161.91,0,0,0-1-31.77c-2.75-18.76-11.14-19.48-34.28-31.72-3.69-1.94-8.5-5.18-15.65-5.41C188,161.11,162.16,181.41,153.57,195.29Z" transform="translate(-114.91 -20)"/><path class="cls-14" d="M220.28,320.38c-28.71-2.57-44.49-3.29-59.44-19.29,9.37,10.64,24.64,24.28,29.93,36.42,7.94,18.22,4.09,38,22.14,55.11l17.27-9c13.44-19.16,26.75-70.64,12.68-96l-.48.88c1.43,13.59-9.54,20.1-20.08,30.71h0l-2,1.16Z" transform="translate(-114.91 -20)"/><path class="cls-15" d="M222.83,320.26,220,321.41l-6.07,18.64-24.75-10.7,25.36,13.85,7-20.25L229.85,337l11.83-22.49,3.29-7.65c-2.68,5.85-9.67,16.33-15.56,26.22l-6.58-12.82Zm-33.7,9.09Z" transform="translate(-114.91 -20)"/><path class="cls-15" d="M214.07,392l16.11-8.41.68-1-3.71-40.87c-.06-.57.55-5.52,1.24-10.64L223.21,321l-2,1.15-4.28,13.13c1.1,3.68,2.16,7.58,2.07,8.42C217.42,359.81,215.67,375.91,214.07,392Z" transform="translate(-114.91 -20)"/><path class="cls-10" d="M212.91,392.62l17.27-9c-.27-2.52-.33-3-.63-5.38C228.1,366,227.68,353,226.22,340c-.06-.59.55-5.54,1.25-10.66l-5.17-10.09-2,1.16L216,333.51c1.09,3.68,2.17,7.55,2.08,8.42-1.52,15.23-3.08,30.27-4.59,44.81C213.27,388.93,213.14,390.32,212.91,392.62Z" transform="translate(-114.91 -20)"/><path class="cls-16" d="M226.29,338.89c-1.62,2.64-4.2,3.1-8.43,1.48C219.9,343.3,225.55,344.67,226.29,338.89Z" transform="translate(-114.91 -20)"/><path class="cls-17" d="M227.07,332.35c.1-.83.29-2.19.4-3l-5.17-10.09-.21.11-.19.12-.21.11-.2.13-.2.1-.21.13-.19.1-.21.13-.21.11-.19.12L216,333.51c.29.94.56,1.93.82,2.86L221.46,323Z" transform="translate(-114.91 -20)"/><polygon class="cls-18" points="58.8 336.3 62.04 330.08 56.52 309.29 64.96 329.05 62.73 337.16 86.33 372.68 58.8 336.3"/><polygon class="cls-18" points="146.07 302.81 142.27 298.4 139.13 278.91 139.89 299.81 144.06 304.66 134.77 342.87 146.07 302.81"/></svg>