<svg id="레이어_1" data-name="레이어 1" xmlns="http://www.w3.org/2000/svg" viewBox="0 0 377.59 413.79"><defs><style>.cls-1{fill:#f5f5f5;}.cls-1,.cls-10,.cls-11,.cls-12,.cls-13,.cls-2,.cls-3,.cls-4,.cls-5,.cls-6,.cls-7,.cls-8,.cls-9{fill-rule:evenodd;}.cls-2{fill:#e9e9eb;}.cls-3{fill:#dddee1;}.cls-4{fill:#d1d2d6;}.cls-5{fill:#2c3e50;}.cls-6{fill:#3d566e;}.cls-7{fill:#ffed00;}.cls-8{fill:#edcc0f;}.cls-9{fill:#9c9c9c;}.cls-10{fill:#c49f0c;}.cls-11{fill:#a8890d;}.cls-12{fill:#e0d210;}.cls-13{fill:#fff896;}</style></defs><path class="cls-1" d="M343.33,348.31c51.29,29.63,51.29,77.64,0,107.27s-134.44,29.62-185.71,0-51.29-77.64,0-107.27S292.05,318.7,343.33,348.31Z" transform="translate(-60.87 -64)"/><path class="cls-2" d="M327.15,357.66c42.36,24.45,42.36,64.11,0,88.57s-111,24.46-153.36,0-42.35-64.12,0-88.57S284.8,333.2,327.15,357.66Z" transform="translate(-60.87 -64)"/><path class="cls-3" d="M311,367c33.41,19.3,33.41,50.59,0,69.89s-87.6,19.3-121,0-33.4-50.59,0-69.89S277.56,347.71,311,367Z" transform="translate(-60.87 -64)"/><path class="cls-4" d="M294.79,376.35c24.49,14.13,24.49,37,0,51.19s-64.16,14.15-88.64,0-24.49-37.06,0-51.19S270.33,362.2,294.79,376.35Z" transform="translate(-60.87 -64)"/><polygon class="cls-5" points="211.07 316.08 206.48 325.05 206.19 325.56 205.85 326.05 205.5 326.56 205.07 327.03 204.61 327.52 204.09 327.99 203.56 328.44 202.96 328.88 202.32 329.3 201.65 329.72 200.91 330.12 200.17 330.48 199.42 330.84 198.62 331.14 197.82 331.44 196.99 331.7 196.15 331.94 195.28 332.17 194.41 332.35 193.53 332.53 192.64 332.66 191.72 332.77 190.81 332.86 189.9 332.93 188.99 332.95 188.05 332.97 187.14 332.95 186.22 332.93 185.29 332.86 184.38 332.77 183.49 332.66 182.6 332.53 181.71 332.35 180.82 332.17 179.98 331.94 179.13 331.7 178.31 331.44 177.48 331.14 176.71 330.84 175.93 330.48 175.19 330.12 174.47 329.72 173.79 329.3 173.16 328.88 172.57 328.44 172.01 327.99 171.52 327.52 171.05 327.03 170.63 326.56 170.25 326.05 169.91 325.56 169.65 325.05 165.05 316.08 165.4 316.71 165.8 317.35 166.26 317.97 166.8 318.58 167.38 319.18 168.01 319.76 168.69 320.34 169.43 320.89 170.23 321.43 171.08 321.94 171.99 322.43 172.9 322.9 173.86 323.32 174.86 323.72 175.86 324.07 176.9 324.4 177.95 324.72 179.02 324.98 180.11 325.21 181.22 325.43 182.33 325.61 183.47 325.75 184.6 325.86 185.76 325.92 186.92 325.99 188.05 325.99 189.21 325.99 190.36 325.92 191.5 325.86 192.64 325.75 193.77 325.61 194.91 325.43 196 325.21 197.08 324.98 198.17 324.72 199.22 324.4 200.27 324.07 201.26 323.72 202.25 323.32 203.2 322.9 204.14 322.43 205.02 321.94 205.9 321.43 206.67 320.89 207.43 320.34 208.12 319.76 208.74 319.18 209.32 318.58 209.84 317.97 210.3 317.35 210.72 316.71 211.07 316.08"/><polygon class="cls-6" points="233.24 294.66 224.21 312.24 223.65 313.23 223.01 314.24 222.27 315.22 221.44 316.18 220.53 317.11 219.55 318.02 218.47 318.91 217.31 319.78 216.04 320.63 214.7 321.43 213.3 322.2 211.86 322.94 210.34 323.6 208.81 324.23 207.21 324.8 205.58 325.32 203.94 325.78 202.25 326.21 200.53 326.58 198.8 326.92 197.04 327.19 195.26 327.41 193.48 327.59 191.68 327.7 189.88 327.79 188.05 327.81 186.25 327.79 184.44 327.7 182.65 327.59 180.86 327.41 179.08 327.19 177.32 326.92 175.59 326.58 173.88 326.21 172.18 325.78 170.52 325.32 168.9 324.8 167.32 324.23 165.75 323.6 164.26 322.94 162.8 322.2 161.4 321.43 160.06 320.63 158.82 319.78 157.66 318.91 156.57 318.02 155.59 317.11 154.68 316.18 153.86 315.22 153.12 314.24 152.47 313.23 151.92 312.24 142.88 294.66 143.57 295.9 144.37 297.15 145.31 298.35 146.34 299.55 147.47 300.73 148.69 301.87 150.05 302.98 151.49 304.07 153.08 305.12 154.74 306.14 156.5 307.1 158.32 308.01 160.2 308.85 162.13 309.63 164.12 310.35 166.13 310.99 168.2 311.59 170.31 312.13 172.47 312.59 174.63 312.99 176.84 313.33 179.06 313.62 181.29 313.84 183.53 314 185.8 314.08 188.05 314.11 190.32 314.08 192.57 314 194.81 313.84 197.06 313.62 199.29 313.33 201.47 312.99 203.65 312.59 205.78 312.13 207.9 311.59 209.97 310.99 211.99 310.35 214 309.63 215.93 308.85 217.8 308.01 219.62 307.1 221.38 306.14 223.04 305.12 224.61 304.07 226.07 302.98 227.41 301.87 228.66 300.73 229.79 299.55 230.82 298.35 231.73 297.15 232.55 295.9 233.24 294.66"/><path class="cls-5" d="M282.08,378.31c12.57-7.28,16.51-17.65,11.79-26.84l-9-17.51-.55-1-.65-1-.73-1-.83-1-.89-.94-1-.91-1.09-.89-1.16-.86-1.24-.83-1.32-.82-1.39-.76-1.45-.71-1.49-.67-1.56-.62-1.58-.58-1.6-.51-1.65-.47-1.69-.42-1.69-.38-1.74-.31-1.75-.29-1.76-.22-1.78-.16-1.78-.13-1.8-.07-1.8,0-1.81,0-1.78.07-1.8.13-1.78.16-1.76.22-1.73.29-1.73.31-1.72.38-1.67.42-1.65.47-1.62.51-1.58.58-1.54.62-1.49.67-1.44.71-1.4.76-1.34.82-1.24.83-1.16.86-1.07.89-1,.91-.92.94-.8,1-.73,1-.65,1-.55,1-9,17.51c-4.72,9.19-.78,19.56,11.8,26.84C234.11,388.87,263.76,388.87,282.08,378.31Z" transform="translate(-60.87 -64)"/><path class="cls-6" d="M295.43,355.74a19.31,19.31,0,0,0-1.56-4.27l-9-17.51-.55-1-.65-1-.73-1-.83-1-.89-.94-1-.91-1.09-.89-1.16-.86-1.24-.83-1.32-.82-1.39-.76-1.45-.71-1.49-.67-1.56-.62-1.58-.58-1.6-.51-1.65-.47-1.69-.42-1.69-.38-1.74-.31-1.75-.29-1.76-.22-1.78-.16-1.78-.13-1.8-.07-1.8,0-1.81,0-1.78.07-1.8.13-1.75.16-1.79.22-1.73.29-1.73.31-1.72.38-1.67.42-1.65.47-1.62.51-1.58.58-1.54.62-1.49.67-1.44.71-1.4.76-1.34.82-1.24.83-1.16.86-1.07.89-1,.91-.92.94-.8,1-.73,1-.65,1-.55,1-9,17.51a17.88,17.88,0,0,0-1.55,4.27c1.27,5.75,5.72,11.28,13.35,15.69,18.31,10.57,48,10.57,66.28,0C289.7,367,294.16,361.49,295.43,355.74Z" transform="translate(-60.87 -64)"/><path class="cls-7" d="M117.68,197.71a4.66,4.66,0,1,1,0,9.32H65.54a4.66,4.66,0,1,1,0-9.32Z" transform="translate(-60.87 -64)"/><path class="cls-7" d="M156.1,102.66a4.64,4.64,0,1,1-6.54,6.58L112.18,71.93a4.65,4.65,0,0,1,6.57-6.58Z" transform="translate(-60.87 -64)"/><path class="cls-7" d="M381.66,207a4.66,4.66,0,0,1,0-9.32h52.15a4.66,4.66,0,1,1,0,9.32Z" transform="translate(-60.87 -64)"/><path class="cls-7" d="M349.8,109.24a4.65,4.65,0,0,1-6.56-6.58l37.38-37.31a4.64,4.64,0,1,1,6.54,6.58Z" transform="translate(-60.87 -64)"/><path class="cls-8" d="M344.42,162.07c13.23,41.76-1.18,70.24-16.13,95.82C318.88,274,312.18,276.32,307,294.65c-3.14,11-1.52,22.78-10.72,31.24-14.53,13.32-29.88,14.68-45.53,15.15h-3.69c-15.62-.47-31-1.83-45.52-15.15-9.21-8.46-7.59-20.21-10.71-31.24C185.67,276.32,179,274,169.56,257.89c-14.93-25.58-29.34-54.06-16.13-95.82C167.05,119.15,208,97.7,248.93,97.7S330.83,119.15,344.42,162.07Z" transform="translate(-60.87 -64)"/><path class="cls-9" d="M275.85,361.22c14.88-8.57,14.88-22.49,0-31.08s-39-8.6-53.84,0-14.87,22.51,0,31.08S261,369.81,275.85,361.22Z" transform="translate(-60.87 -64)"/><path class="cls-5" d="M282.08,364c12.57-7.27,16.51-17.64,11.79-26.83l-9-17.51-.55-1-.65-1-.73-.95-.83-1-.89-.93-1-.92-1.09-.89-1.16-.87-1.24-.82-1.32-.8-1.39-.78L272.6,309l-1.49-.67-1.56-.62-1.58-.58-1.6-.51-1.65-.47-1.69-.42-1.69-.38L259.6,305l-1.75-.29-1.76-.22-1.78-.16-1.78-.13-1.8-.07-1.8,0-1.81,0-1.78.07-1.8.13-1.78.16-1.76.22-1.73.29-1.73.31-1.72.38-1.67.42-1.65.47-1.62.51-1.58.58-1.54.62-1.49.67-1.44.71-1.4.78-1.34.8-1.24.82-1.16.87-1.07.89-1,.92-.92.93-.8,1-.73.95-.65,1-.55,1-9,17.51c-4.72,9.19-.78,19.56,11.8,26.83C234.11,374.53,263.76,374.53,282.08,364Z" transform="translate(-60.87 -64)"/><path class="cls-6" d="M295.43,341.39a19.13,19.13,0,0,0-1.56-4.27l-9-17.51-.55-1-.65-1-.73-.95-.83-1-.89-.93-1-.92-1.09-.89-1.16-.87-1.24-.82-1.32-.8-1.39-.78L272.6,309l-1.49-.67-1.56-.62-1.58-.58-1.6-.51-1.65-.47-1.69-.42-1.69-.38L259.6,305l-1.75-.29-1.76-.22-1.78-.16-1.78-.13-1.8-.07-1.8,0-1.81,0-1.78.07-1.8.13-1.75.16-1.79.22-1.73.29-1.73.31-1.72.38-1.67.42-1.65.47-1.62.51-1.58.58-1.54.62-1.49.67-1.44.71-1.4.78-1.34.8-1.24.82-1.16.87-1.07.89-1,.92-.92.93-.8,1-.73.95-.65,1-.55,1-9,17.51a17.72,17.72,0,0,0-1.55,4.27c1.27,5.74,5.72,11.28,13.35,15.69,18.31,10.57,48,10.57,66.28,0C289.7,352.67,294.16,347.13,295.43,341.39Z" transform="translate(-60.87 -64)"/><path class="cls-9" d="M275.85,344.68c14.88-8.58,14.88-22.51,0-31.08s-39-8.59-53.84,0-14.87,22.5,0,31.08S261,353.28,275.85,344.68Z" transform="translate(-60.87 -64)"/><polygon class="cls-9" points="235.42 250.98 235.42 267.47 235.27 268.78 235 270.1 234.61 271.39 234.13 272.68 233.53 273.94 232.82 275.21 232.02 276.46 231.08 277.69 230.05 278.89 228.92 280.06 227.68 281.22 226.32 282.36 224.85 283.45 223.27 284.49 221.58 285.52 219.82 286.49 218 287.4 216.11 288.25 214.15 289.03 212.15 289.74 210.1 290.41 208.03 290.99 205.9 291.52 203.74 291.99 201.55 292.41 199.36 292.75 197.1 293.04 194.86 293.26 192.62 293.42 190.35 293.5 188.05 293.52 185.78 293.5 183.51 293.42 181.24 293.26 179 293.04 176.77 292.75 174.55 292.41 172.36 291.99 170.21 291.52 168.09 290.99 166 290.41 163.96 289.74 161.97 289.03 160.02 288.25 158.13 287.4 156.31 286.49 154.52 285.52 152.85 284.49 151.27 283.45 149.81 282.36 148.45 281.22 147.2 280.06 146.07 278.89 145.02 277.69 144.11 276.46 143.28 275.21 142.59 273.94 142 272.68 141.51 271.39 141.13 270.1 140.86 268.78 140.69 267.47 140.69 250.98 140.86 252.29 141.13 253.61 141.51 254.9 142 256.19 142.59 257.46 143.28 258.73 144.11 259.97 145.02 261.19 146.07 262.39 147.2 263.58 148.45 264.73 149.81 265.85 151.27 266.96 152.85 268.01 154.52 269.03 156.31 270.01 158.13 270.9 160.02 271.74 161.97 272.54 163.96 273.26 166 273.93 168.09 274.5 170.21 275.03 172.36 275.5 174.55 275.93 176.77 276.26 179 276.55 181.24 276.77 183.51 276.92 185.78 277.02 188.05 277.04 190.35 277.02 192.62 276.92 194.86 276.77 197.1 276.55 199.36 276.26 201.55 275.93 203.74 275.5 205.9 275.03 208.03 274.5 210.1 273.93 212.15 273.26 214.15 272.54 216.11 271.74 218 270.9 219.82 270.01 221.58 269.03 223.27 268.01 224.85 266.96 226.32 265.85 227.68 264.73 228.92 263.58 230.05 262.39 231.08 261.19 232.02 259.97 232.82 258.73 233.53 257.46 234.13 256.19 234.61 254.9 235 253.61 235.27 252.29 235.42 250.98"/><path class="cls-10" d="M282.45,294.32c18.54,10.67,18.54,28,0,38.71s-48.52,10.7-67,0-18.52-28,0-38.71S263.94,283.61,282.45,294.32Z" transform="translate(-60.87 -64)"/><polygon class="cls-5" points="235.42 250.98 235.42 267.47 235.27 268.78 235 270.1 234.61 271.39 234.13 272.68 233.53 273.94 232.82 275.21 232.02 276.46 231.08 277.69 230.05 278.89 228.92 280.06 227.68 281.22 226.32 282.36 224.85 283.45 223.27 284.49 221.58 285.52 219.82 286.49 218 287.4 216.11 288.25 214.15 289.03 212.15 289.74 210.1 290.41 208.03 290.99 205.9 291.52 203.74 291.99 201.55 292.41 199.36 292.75 197.1 293.04 194.86 293.26 192.62 293.42 190.35 293.5 188.05 293.52 185.78 293.5 183.51 293.42 181.24 293.26 179 293.04 176.77 292.75 174.55 292.41 172.36 291.99 170.21 291.52 168.09 290.99 166 290.41 163.96 289.74 161.97 289.03 160.02 288.25 158.13 287.4 156.31 286.49 154.52 285.52 152.85 284.49 151.27 283.45 149.81 282.36 148.45 281.22 147.2 280.06 146.07 278.89 145.02 277.69 144.11 276.46 143.28 275.21 142.59 273.94 142 272.68 141.51 271.39 141.13 270.1 140.86 268.78 140.69 267.47 140.69 250.98 140.86 252.29 141.13 253.61 141.51 254.9 142 256.19 142.59 257.46 143.28 258.73 144.11 259.97 145.02 261.19 146.07 262.39 147.2 263.58 148.45 264.73 149.81 265.85 151.27 266.96 152.85 268.01 154.52 269.03 156.31 270.01 158.13 270.9 160.02 271.74 161.97 272.54 163.96 273.26 166 273.93 168.09 274.5 170.21 275.03 172.36 275.5 174.55 275.93 176.77 276.26 179 276.55 181.24 276.77 183.51 276.92 185.78 277.02 188.05 277.04 190.35 277.02 192.62 276.92 194.86 276.77 197.1 276.55 199.36 276.26 201.55 275.93 203.74 275.5 205.9 275.03 208.03 274.5 210.1 273.93 212.15 273.26 214.15 272.54 216.11 271.74 218 270.9 219.82 270.01 221.58 269.03 223.27 268.01 224.85 266.96 226.32 265.85 227.68 264.73 228.92 263.58 230.05 262.39 231.08 261.19 232.02 259.97 232.82 258.73 233.53 257.46 234.13 256.19 234.61 254.9 235 253.61 235.27 252.29 235.42 250.98"/><polygon class="cls-6" points="235.42 250.98 235.42 261.02 235.27 262.33 235 263.64 234.61 264.93 234.13 266.23 233.53 267.49 232.82 268.76 232.02 270.01 231.08 271.23 230.05 272.43 228.92 273.61 227.68 274.76 226.32 275.9 224.85 276.99 223.27 278.04 221.58 279.06 219.82 280.04 218 280.95 216.11 281.8 214.15 282.57 212.15 283.29 210.1 283.96 208.03 284.56 205.9 285.07 203.74 285.56 201.55 285.96 199.36 286.3 197.1 286.59 194.86 286.81 192.62 286.96 190.35 287.05 188.05 287.1 185.78 287.05 183.51 286.96 181.24 286.81 179 286.59 176.77 286.3 174.55 285.96 172.36 285.56 170.21 285.07 168.09 284.56 166 283.96 163.96 283.29 161.97 282.57 160.02 281.8 158.13 280.95 156.31 280.04 154.52 279.06 152.85 278.04 151.27 276.99 149.81 275.9 148.45 274.76 147.2 273.61 146.07 272.43 145.02 271.23 144.11 270.01 143.28 268.76 142.59 267.49 142 266.23 141.51 264.93 141.13 263.64 140.86 262.33 140.69 261.02 140.69 250.98 140.86 252.29 141.13 253.61 141.51 254.9 142 256.19 142.59 257.46 143.28 258.73 144.11 259.97 145.02 261.19 146.07 262.39 147.2 263.58 148.45 264.73 149.81 265.85 151.27 266.96 152.85 268.01 154.52 269.03 156.31 270.01 158.13 270.9 160.02 271.74 161.97 272.54 163.96 273.26 166 273.93 168.09 274.5 170.21 275.03 172.36 275.5 174.55 275.93 176.77 276.26 179 276.55 181.24 276.77 183.51 276.92 185.78 277.02 188.05 277.04 190.35 277.02 192.62 276.92 194.86 276.77 197.1 276.55 199.36 276.26 201.55 275.93 203.74 275.5 205.9 275.03 208.03 274.5 210.1 273.93 212.15 273.26 214.15 272.54 216.11 271.74 218 270.9 219.82 270.01 221.58 269.03 223.27 268.01 224.85 266.96 226.32 265.85 227.68 264.73 228.92 263.58 230.05 262.39 231.08 261.19 232.02 259.97 232.82 258.73 233.53 257.46 234.13 256.19 234.61 254.9 235 253.61 235.27 252.29 235.42 250.98"/><path class="cls-11" d="M296.3,315v10.91c-10.06,9.88-24.17,14.95-46.57,15.15h-.67l2.16,0,2.27-.1,2.24-.15,2.25-.22,2.25-.29,2.2-.33,2.18-.43,2.16-.47,2.13-.53,2.08-.57,2-.67,2-.72,2-.8,1.89-.84,1.82-.89,1.76-1,1.7-1,1.58-1.05,1.46-1.11,1.36-1.12,1.25-1.15,1.13-1.18,1-1.21.93-1.22.8-1.24.72-1.27.59-1.27.49-1.29.38-1.29.27-1.32.16-1.31Zm-94.74,10.8V315l.17,1.31.27,1.32.38,1.29.49,1.29.6,1.27.69,1.27L205,324l.91,1.22,1.05,1.21,1.13,1.18,1.25,1.15,1.36,1.12,1.47,1.11,1.58,1.05,1.67,1,1.78,1,1.82.89,1.89.84,2,.8,2,.72,2,.67,2.1.57,2.11.53,2.16.47,2.18.43,2.22.33,2.23.29,2.25.22,2.26.15,2.27.1,2.18,0C226,341.13,211.75,336,201.56,325.78Z" transform="translate(-60.87 -64)"/><polygon class="cls-11" points="204.8 230.8 204.8 245.13 204.8 245.25 204.78 245.35 204.74 245.44 204.67 245.55 204.58 245.65 204.49 245.75 204.38 245.84 204.25 245.94 180.11 259.86 179.95 259.93 179.8 259.99 179.64 260.06 179.46 260.1 179.29 260.15 179.11 260.17 178.91 260.2 178.73 260.2 178.55 260.2 178.35 260.17 178.17 260.15 177.99 260.1 177.82 260.06 177.66 259.99 177.5 259.93 177.35 259.86 177.19 259.77 175.46 258.75 170.98 256.17 170.85 256.1 170.72 256.01 170.63 255.9 170.54 255.81 170.5 255.7 170.45 255.59 170.41 255.5 170.41 255.38 170.41 241.06 170.41 241.17 170.45 241.28 170.5 241.38 170.54 241.49 170.63 241.57 170.72 241.68 170.85 241.78 170.98 241.86 175.46 244.44 177.19 245.44 177.35 245.54 177.5 245.62 177.66 245.69 177.82 245.73 177.99 245.78 178.17 245.82 178.35 245.84 178.55 245.87 178.73 245.87 178.91 245.87 179.11 245.84 179.29 245.82 179.46 245.78 179.64 245.73 179.8 245.69 179.95 245.62 180.11 245.54 204.25 231.6 204.38 231.52 204.49 231.42 204.58 231.34 204.67 231.23 204.74 231.14 204.78 231.02 204.8 230.91 204.8 230.8"/><path class="cls-12" d="M258.74,290.33l6.38,3.7c.76.42.76,1.13,0,1.57L241,309.54a3.07,3.07,0,0,1-2.77,0l-.15-.1-1.74-1-4.47-2.58a.85.85,0,0,1,0-1.6L256,290.33A3,3,0,0,1,258.74,290.33Z" transform="translate(-60.87 -64)"/><path class="cls-11" d="M226.34,218.22c-1.71,1-3.11.18-3.11-1.8s.4-4.74,2.09-5.74l49.15-28.53c1.71-1,1.82.88,1.82,2.85s-.89,4.9-2.6,5.87Z" transform="translate(-60.87 -64)"/><path class="cls-10" d="M261.12,294.09a1.49,1.49,0,0,1-.85,1.29,4.56,4.56,0,0,1-4.16,0c-.53-.31-.86-.71-.85-1.11.07-3,.12-5.94.18-8.92.34-16,.74-29.6,2.81-43.61,2.44-16.46,6.7-33.58,13.61-56.05.62-2,2.34-3.83,3.79-3.94s2.16,1.45,1.54,3.5c-6.77,22-10.91,38.6-13.27,54.45-2.13,14.34-2.85,28.2-2.82,45,0,3.14,0,6.28,0,9.41Zm-39.18-76.91c-.62-1.34.07-3.7,1.51-5.25s3.18-1.76,3.81-.45c6.89,14.51,10.85,26.86,13.06,40.65,2,12.66,2.49,26.5,2.38,44.34,0,2.76,0,5.52,0,8.28a1.53,1.53,0,0,1-.87,1.29,4.68,4.68,0,0,1-4.16,0,1.48,1.48,0,0,1-.84-1.2c0-16.36.4-32-2.21-48.35C232.52,243.25,228.66,231.3,221.94,217.18Z" transform="translate(-60.87 -64)"/><path class="cls-7" d="M234.31,219c-.4,2.33-2.12,4.64-3.85,5.18s-2.8-.94-2.4-3.27l2.69-15.8c.38-2.34,2.11-4.67,3.85-5.2s2.8,1,2.4,3.29Z" transform="translate(-60.87 -64)"/><path class="cls-7" d="M242.67,215.17c-.4,2.34-2.13,4.68-3.84,5.21s-2.83-1-2.43-3.29L239.67,198c.38-2.34,2.12-4.68,3.85-5.21s2.8.93,2.4,3.27Z" transform="translate(-60.87 -64)"/><path class="cls-7" d="M251.06,211.39c-.4,2.34-2.13,4.67-3.85,5.21s-2.83-.94-2.43-3.29l3.84-22.44c.4-2.35,2.11-4.67,3.84-5.2s2.8.93,2.4,3.27Z" transform="translate(-60.87 -64)"/><path class="cls-7" d="M259.83,204.38c-.4,2.34-2.14,4.67-3.85,5.21s-2.83-.94-2.43-3.27l3.25-19.13c.4-2.34,2.14-4.67,3.85-5.21s2.82.94,2.42,3.29Z" transform="translate(-60.87 -64)"/><path class="cls-7" d="M268.58,197.4c-.41,2.34-2.12,4.67-3.86,5.2s-2.8-.93-2.42-3.26l2.69-15.8c.4-2.36,2.13-4.67,3.87-5.21s2.81.94,2.41,3.27Z" transform="translate(-60.87 -64)"/><path class="cls-7" d="M276.9,191.75c-.41,2.33-2.14,4.64-3.86,5.18s-2.82-.94-2.42-3.27l2.13-12.53c.41-2.34,2.12-4.67,3.85-5.2s2.81.93,2.43,3.27Z" transform="translate(-60.87 -64)"/><path class="cls-7" d="M226.39,221.47c-.4,2.34-2.14,4.67-3.85,5.19s-2.82-.94-2.42-3.28l2.13-12.52c.4-2.34,2.11-4.67,3.85-5.21s2.8.94,2.42,3.27Z" transform="translate(-60.87 -64)"/><path class="cls-7" d="M238.44,168.76c-33.92,3.83-61.2,25-73.39,51.51a42,42,0,0,1-5.3-13.13c-9.85-44.4,26.54-91.2,78.69-97.07Z" transform="translate(-60.87 -64)"/><path class="cls-13" d="M236.31,217.82c-.4,2.34-2.11,4.68-3.85,5.21s-2.8-.94-2.42-3.29L232.73,204c.4-2.36,2.13-4.67,3.87-5.21s2.8.94,2.4,3.28Z" transform="translate(-60.87 -64)"/><path class="cls-13" d="M244.67,214c-.4,2.36-2.13,4.67-3.84,5.21s-2.83-.94-2.43-3.27l3.27-19.14c.38-2.33,2.12-4.67,3.85-5.2s2.8,1,2.4,3.28Z" transform="translate(-60.87 -64)"/><path class="cls-13" d="M253.07,210.25c-.4,2.37-2.14,4.68-3.86,5.21s-2.82-.93-2.42-3.27l3.83-22.45c.4-2.33,2.11-4.67,3.84-5.2s2.81,1,2.41,3.29Z" transform="translate(-60.87 -64)"/><path class="cls-13" d="M261.83,203.27c-.4,2.34-2.13,4.68-3.87,5.19s-2.81-.94-2.41-3.28l3.25-19.11c.4-2.35,2.14-4.67,3.86-5.2s2.82.93,2.42,3.27Z" transform="translate(-60.87 -64)"/><path class="cls-13" d="M270.58,196.28c-.4,2.34-2.12,4.68-3.86,5.19s-2.8-.93-2.42-3.27L267,182.4c.4-2.33,2.13-4.67,3.85-5.21s2.83,1,2.43,3.3Z" transform="translate(-60.87 -64)"/><path class="cls-13" d="M278.9,190.61c-.4,2.34-2.14,4.68-3.86,5.21s-2.82-.93-2.42-3.3L274.76,180c.4-2.34,2.11-4.67,3.85-5.21s2.8,1,2.42,3.3Z" transform="translate(-60.87 -64)"/><path class="cls-13" d="M228.39,220.34c-.4,2.33-2.14,4.67-3.85,5.2s-2.82-.93-2.42-3.27l2.13-12.55c.4-2.33,2.11-4.67,3.85-5.18s2.81.93,2.42,3.27Z" transform="translate(-60.87 -64)"/></svg>