<svg id="레이어_1" data-name="레이어 1" xmlns="http://www.w3.org/2000/svg" viewBox="0 0 303.5 401.79"><defs><style>.cls-1{fill:#f5f5f5;}.cls-1,.cls-10,.cls-2,.cls-3,.cls-4,.cls-5,.cls-6,.cls-7,.cls-8,.cls-9{fill-rule:evenodd;}.cls-2{fill:#e9e9eb;}.cls-3{fill:#dddee1;}.cls-4{fill:#d1d2d6;}.cls-5{fill:#d0defa;}.cls-6{fill:#b4ccfa;}.cls-7{fill:#27ae60;}.cls-8{fill:#8da4d1;}.cls-9{fill:#05883b;}.cls-10{fill:#e6eaeb;}</style></defs><path class="cls-1" d="M343.33,348.31c51.29,29.63,51.29,77.64,0,107.27s-134.44,29.62-185.71,0-51.29-77.64,0-107.27S292.05,318.7,343.33,348.31Z" transform="translate(-99.11 -76)"/><path class="cls-2" d="M327.15,357.66c42.36,24.45,42.36,64.11,0,88.57s-111,24.46-153.36,0-42.35-64.12,0-88.57S284.8,333.2,327.15,357.66Z" transform="translate(-99.11 -76)"/><path class="cls-3" d="M311,367c33.41,19.3,33.41,50.59,0,69.89s-87.6,19.3-121,0-33.4-50.59,0-69.89S277.56,347.71,311,367Z" transform="translate(-99.11 -76)"/><path class="cls-4" d="M294.79,376.35c24.49,14.13,24.49,37,0,51.19s-64.16,14.15-88.64,0-24.49-37.06,0-51.19S270.33,362.2,294.79,376.35Z" transform="translate(-99.11 -76)"/><path class="cls-5" d="M357,121.73a149.41,149.41,0,1,0,32.61,48.74A150.89,150.89,0,0,0,357,121.73Z" transform="translate(-99.11 -76)"/><path class="cls-6" d="M347.71,131a136.38,136.38,0,1,0,29.77,44.48A137.49,137.49,0,0,0,347.71,131Z" transform="translate(-99.11 -76)"/><path class="cls-7" d="M355,138.79c5,5.8,17.63,24.42,23.05,38A137.3,137.3,0,0,1,302,355.12c-6.75,2.72,12.44-20,.58-32.52s-62.18,2-60.77-23.67,12.61-25.56,18.51-39,13-2.56,38.15-11.14,58.62-7.33,69.52-18.75-41.72,2.22-51.41-.2-11.66-14.05-18.61-13.66-3,12.93-10.78,15.31-28.6,6-29.87-2.85c-4.91-34,21.33-23.24,22.93-25.11,6.92-8-8.23-14.36,1.12-25.69S300,164.51,304.91,156.6s-11.52-14-4-20.15S349.79,132.7,355,138.79Z" transform="translate(-99.11 -76)"/><path class="cls-7" d="M241.64,91.11a137,137,0,0,0-94,227,3.83,3.83,0,0,0,2.84,1.35,3.57,3.57,0,0,0,2.92-1.16c9.14-10.54,35.53-17.79,37.33-31.61,1.36-10.31-15.7-14.36-20.19-23.73-5.07-10.61-1-24.73-7.65-34.46-6.85-10.08-32.9-11-40-21-3.85-5.45-1-13.65,1-20,.89-2.76,4.24-4.38,7.07-5.1,4-1,8.26.1,12.39.14.27,0,39.08-5.88,51-11s5.38-12,10.62-14.16,13.45,13.68,21.53,6.69,14.41-40.79,17.29-48.61,13.57-.2,16.39,1.45-5,16.77-1.35,19.56,18.79-6.84,20.69-8.72c11.38-11.28,8.54-21.65,2.17-26.73s-25.9,1.65-37.14-8.84A3.78,3.78,0,0,0,241.64,91.11Z" transform="translate(-99.11 -76)"/><path class="cls-8" d="M300.72,100.23a137.12,137.12,0,1,0,47,224.52,139.42,139.42,0,0,0,10.45-11.67,126.32,126.32,0,1,1-57.44-212.85Z" transform="translate(-99.11 -76)"/><path class="cls-9" d="M241.64,91.11a137,137,0,0,0-94,227,3.83,3.83,0,0,0,2.84,1.35,3.57,3.57,0,0,0,2.92-1.16c4.33-5,12.55-9.25,20.18-13.82a125.78,125.78,0,0,1-30-81.71c0-1.53,0-3.07.1-4.57-8.48-2.83-17.1-5.54-20.74-10.66-3.85-5.45-1-13.65,1-20,.89-2.76,4.24-4.38,7.07-5.1,4-1,8.26.1,12.39.14.08,0,2.82-.4,7-1.09a126.4,126.4,0,0,1,104.14-84.1,22.15,22.15,0,0,1-10-5.19A3.78,3.78,0,0,0,241.64,91.11Z" transform="translate(-99.11 -76)"/><path class="cls-9" d="M358.59,312.63a139.88,139.88,0,0,1-11.87,13.21A137,137,0,0,1,302,355.12c-3.41,1.36-.2-3.78,2.28-10.81A126.13,126.13,0,0,0,358.59,312.63Z" transform="translate(-99.11 -76)"/><path class="cls-10" d="M252.54,376a147.54,147.54,0,0,0,72.61-19.92C303.5,365.12,278,369.77,252.48,370c0,2.6,0,4.57.06,6ZM399.08,227.5c-.06-21.53-8.26-41.62-22.42-58.65A49.8,49.8,0,0,1,372.77,179c-5.68,11.09-15.91,21.56-30.64,30.4,12.87,24.07,21.2,49.19,23.17,72.5A92.17,92.17,0,0,0,388,260.23c7.19-10,10.88-20.67,11.06-31.3l0-1.17,0-.26Zm-25.28-62a43.77,43.77,0,0,1-4.17,11.88c-5.36,10.48-15.09,20.43-29.19,28.89q-3.81-6.92-8.1-13.64c-19.34-30.43-45.64-57.91-74.83-76.16,38.39,1.27,73,13.5,98.36,32.67a126.16,126.16,0,0,1,17.93,16.36Zm-129.58-49c-38.38,1.27-73,13.5-98.34,32.67a125.25,125.25,0,0,0-17.95,16.36,45.17,45.17,0,0,0,4.17,11.88c5.36,10.44,15,20.37,29.05,28.81q3.79-6.79,8-13.42c19.41-30.48,45.8-58.07,75.09-76.3ZM125.07,168.85A49.89,49.89,0,0,0,129,179c5.66,11.08,15.83,21.5,30.51,30.32-12.89,24-21.27,49.13-23.3,72.42a94,94,0,0,1-21.25-19.87c-7.35-9.66-11.39-19.9-12.15-30.21-.08-.87-.12-1.75-.14-2.64v-1.27c0-21.63,8.22-41.83,22.42-58.91ZM107.52,190a106.07,106.07,0,0,1,16.64-25.48,43.46,43.46,0,0,1,0-13.66A147,147,0,0,0,107.52,190ZM127.3,161a41.3,41.3,0,0,1,2.5-18l-.46-.16a149.2,149.2,0,0,1,38.59-38c8.24-4.29,18-6.35,28.89-6,14.2.45,30.32,5,47.5,14.06-39.2,1.24-74.57,13.78-100.56,33.38A128.54,128.54,0,0,0,127.3,161ZM257.43,113c39.2,1.26,74.57,13.78,100.57,33.38A129.71,129.71,0,0,1,374.44,161a41.45,41.45,0,0,0-2.5-18l.45-.16A147.6,147.6,0,0,0,355.67,123c-3.55-3.56-7.31-6.94-11.2-10.13l0,0-.5-.46c-2.56-2.09-5.22-4.08-7.92-6-8.74-5.24-19.36-7.76-31.34-7.36-14.13.45-30.16,5-47.24,13.92Zm120.15,51.51a44.69,44.69,0,0,0,0-13.66A148,148,0,0,1,394.24,190a106.46,106.46,0,0,0-16.66-25.48Zm25,62.75v.52h0v.31h0V229a151,151,0,0,1-32.08,92.05,68.72,68.72,0,0,1-12.07,14.41c-2,1.79-4.05,3.55-6.3,5.26a151.67,151.67,0,0,1-202.6,0c-2.26-1.71-4.34-3.47-6.31-5.26a69.39,69.39,0,0,1-12.08-14.41A151.07,151.07,0,0,1,99.13,229v-.12l0-.78h0v-.31a151.31,151.31,0,0,1,44.45-107.3q5.37-5.35,11.2-10.15l-.14-.14a51.33,51.33,0,0,1,11.46-8.3A151.82,151.82,0,0,1,338,103.5a50.28,50.28,0,0,1,8.15,6.14,151.9,151.9,0,0,1,56.48,117.6ZM143.84,330.29c-.38-.74-.76-1.47-1.1-2.22-4.54-9.75-7-21.67-7-35.53,0-2.23.07-4.45.19-6.72A98.94,98.94,0,0,1,112.14,264a68,68,0,0,1-7.56-12.37,147.12,147.12,0,0,0,29.15,66.92l0,0,.26.42a146.51,146.51,0,0,0,9.81,11.32ZM252.38,111.7c0-10.72.07-18.15.1-23.37,0-4.13.09-6.89.11-8.78a147.57,147.57,0,0,1,67.65,17.18,69.33,69.33,0,0,0-15.66-1.19c-15.61.52-33.37,5.76-52.2,16.16Zm-3.53,6.08v3.14c-.08,31.34-.12,69.84-.12,106.84v.54c-30.6-.3-61-7.08-84.54-20.3,2.48-4.49,5.13-8.92,7.91-13.31,19.75-31,46.8-59,76.75-76.91Zm-86.32,93.3c-13,24.27-21.31,49.61-23,72.94,2,1.29,4,2.54,6.12,3.75,28.49,16.46,65.71,24.83,103.1,25.12,0-25.3-.06-53.51-.06-81.08-31.14-.3-62.16-7.21-86.2-20.73Zm-23.2,77c0,1.51-.08,3-.08,4.49,0,13.34,2.36,24.75,6.69,34a52.07,52.07,0,0,0,9.5,14.08c2.38,1.64,4.9,3.25,7.58,4.78,23.73,13.71,54.75,20.7,85.93,21,0-7-.08-17.25-.1-31.83l-.06-18.15c-38-.3-75.82-8.84-104.86-25.6-1.57-.92-3.11-1.83-4.6-2.78ZM345.1,341.47c-2,1.37-4.14,2.7-6.37,4-23.83,13.76-55,20.75-86.26,21,0-7-.09-17.25-.11-31.83l0-18.15c38.19-.22,76.29-8.74,105.48-25.6,1.5-.85,2.95-1.73,4.35-2.62,0,1.41.09,2.8.09,4.19,0,13.35-2.37,24.75-6.7,34a51.93,51.93,0,0,1-10.45,15ZM249,370c-25.44-.22-50.8-4.85-72.37-13.88A147.65,147.65,0,0,0,249,376c0-1.47,0-3.44-.06-6Zm118.74-51a153,153,0,0,1-10.53,12.08c.54-1,1.07-2.07,1.57-3.14,4.53-9.76,7-21.65,7-35.51,0-2.13-.06-4.25-.16-6.42,10.79-7.23,19.23-15.25,25.28-23.7a68.35,68.35,0,0,0,6.3-10.63A147.77,147.77,0,0,1,368,318.57l-.06,0-.25.42ZM339.09,211.16c13,24.31,21.25,49.67,22.86,73-1.89,1.23-3.86,2.42-5.9,3.59-28.63,16.55-66.13,24.93-103.74,25.12-.05-23.59-.07-51.85-.07-81.06,31.35-.2,62.6-7.09,86.85-20.67ZM252.24,228.3c30.81-.2,61.47-6.94,85.16-20.22q-3.75-6.86-8-13.53c-19.8-31.13-47-59.16-77-77.07v3.44c-.07,27.68-.12,66.51-.12,106.84v.54Zm-3.37-116.87c0-10.59.06-17.94.1-23.12,0-4.11.08-6.85.1-8.76a147.5,147.5,0,0,0-67,16.88,69.47,69.47,0,0,1,14.83-1C212.45,95.9,230.13,101.1,248.87,111.43Z" transform="translate(-99.11 -76)"/></svg>