<svg id="레이어_1" data-name="레이어 1" xmlns="http://www.w3.org/2000/svg" viewBox="0 0 265.6 447.79"><defs><style>.cls-1{fill:#f5f5f5;}.cls-1,.cls-10,.cls-2,.cls-3,.cls-4,.cls-5,.cls-6,.cls-7,.cls-8,.cls-9{fill-rule:evenodd;}.cls-2{fill:#e9e9eb;}.cls-3{fill:#dddee1;}.cls-4{fill:#d1d2d6;}.cls-5{fill:#3d566e;}.cls-6{fill:#ebebeb;}.cls-7{fill:#9c9c9c;}.cls-8{fill:#9dd6f5;}.cls-9{fill:#fac13c;}.cls-10{fill:#bdbdbd;}</style></defs><path class="cls-1" d="M343.33,350.31c51.29,29.63,51.29,77.64,0,107.27s-134.44,29.62-185.71,0-51.29-77.64,0-107.27S292.05,320.7,343.33,350.31Z" transform="translate(-116.2 -32)"/><path class="cls-2" d="M327.15,359.66c42.36,24.45,42.36,64.11,0,88.57s-111,24.46-153.36,0-42.35-64.12,0-88.57S284.8,335.2,327.15,359.66Z" transform="translate(-116.2 -32)"/><path class="cls-3" d="M311,369c33.41,19.3,33.41,50.59,0,69.89s-87.6,19.3-121,0-33.4-50.59,0-69.89S277.56,349.71,311,369Z" transform="translate(-116.2 -32)"/><path class="cls-4" d="M294.79,378.35c24.49,14.13,24.49,37,0,51.19s-64.16,14.15-88.64,0-24.49-37.06,0-51.19S270.33,364.2,294.79,378.35Z" transform="translate(-116.2 -32)"/><path class="cls-5" d="M197.13,163.23l-48.94,28.23c-7.71,4.46-14.09,15.39-14.09,24.37L134,407.36c0,10.36,7.32,14.58,16.3,9.43l46.81-27Z" transform="translate(-116.2 -32)"/><path class="cls-6" d="M376,289.57v-9.29c0-48.28-.24-231.48-1-233.13-2.19-4.76-7.35-5.83-13-2.55L183.66,147.5c-7.7,4.45-14.07,15.39-14.07,24.37l-.09,236.82L163.1,431,359.71,317.79c4.47-2.58,8.33-6.66,11.51-12.15A32.28,32.28,0,0,0,376,289.57Z" transform="translate(-116.2 -32)"/><path class="cls-7" d="M151.05,169.24l-20.69,11.95-1.44.88-1.37,1.06-1.36,1.18-1.3,1.28-1.23,1.4-1.14,1.48L121.43,190l-1,1.62-.91,1.69-.81,1.72-.7,1.74-.6,1.77-.47,1.77-.37,1.75-.2,1.74-.08,1.72-.07,175.94v5.18l.34,3.6.17.54c2.42,15.31,13,31.89,25.8,39.23,13.56,7.83,25.56,2.6,26.89-11.77l.1.05v-1.63c0-.53,0-1.07,0-1.65l0-.91h0l.09-242.26.07-1.69.21-1.75.34-1.77.5-1.77.59-1.78.7-1.73.81-1.73.91-1.66,1-1.64,1.06-1.56,1.18-1.48,1.22-1.38,1.3-1.3,1.33-1.18,1.4-1,1.43-.91L362,44.6l2.08-1,2-.63,1.93-.23,1.77.12,1.61.53-18.53-10.7-1.62-.52L349.51,32l-1.93.27-2,.62-2.08,1L165.1,136.81l-1.4.9-1.41,1L161,139.93l-1.29,1.3-1.23,1.38-1.17,1.48-1.06,1.56-1,1.64-.91,1.66-.81,1.72-.73,1.75-.57,1.77-.5,1.77-.33,1.77-.24,1.75,0,1.69v8.07Zm0,20.59L151,403.62l-.05-.06c0,.34,0,.65,0,1,0,5.39-3.77,7.57-8.43,4.86-4.39-2.52-8.07-10.78-8.46-14.1v-10.7h0l0-168.76c0-.55,0-1.12.08-1.69s.13-1.17.21-1.75.24-1.17.36-1.76.29-1.18.47-1.77.39-1.18.6-1.78.47-1.16.71-1.74.54-1.14.82-1.72.58-1.12.92-1.66.64-1.09,1-1.64.71-1,1.1-1.57.76-1,1.14-1.48.84-.94,1.25-1.38.84-.88,1.28-1.3.88-.8,1.35-1.17.92-.71,1.39-1,.93-.62,1.43-.92Z" transform="translate(-116.2 -32)"/><path class="cls-5" d="M352.89,156.14c1.77-1,3.23-.18,3.23,1.88a7.21,7.21,0,0,1-3.23,5.62l-67.84,39.15c-1.79,1-3.25.21-3.25-1.88a7.12,7.12,0,0,1,3.25-5.59Z" transform="translate(-116.2 -32)"/><path class="cls-5" d="M352.89,194.8c1.77-1,3.23-.19,3.23,1.87a7.27,7.27,0,0,1-3.23,5.63l-67.84,39.15c-1.79,1-3.25.21-3.25-1.88a7.15,7.15,0,0,1,3.25-5.6Z" transform="translate(-116.2 -32)"/><path class="cls-5" d="M352.89,235.84c1.77-1,3.23-.17,3.23,1.89a7.24,7.24,0,0,1-3.23,5.62L194.7,334.66c-1.77,1-3.22.2-3.22-1.87a7.26,7.26,0,0,1,3.22-5.63Z" transform="translate(-116.2 -32)"/><path class="cls-8" d="M196.6,242.77l71-41c1.8-1,3.25-.21,3.25,1.88v45.84a7.09,7.09,0,0,1-3.25,5.59l-71,41c-1.8,1-3.25.18-3.25-1.87V248.4A7.2,7.2,0,0,1,196.6,242.77Z" transform="translate(-116.2 -32)"/><path class="cls-5" d="M201.71,217.78a7.17,7.17,0,0,1-3.26,5.58c-1.77,1-3.23.15-3.2-1.91l.39-39.59a7,7,0,0,1,3.25-5.57,2,2,0,0,1,2.48,0h0l21.78,18.68.34-29.17a7.09,7.09,0,0,1,3.25-5.57c1.8-1,3.2-.13,3.2,1.92l-.44,39.42a7,7,0,0,1-1.2,3.77c-1.41,2.08-3.43,3-4.56,2.06L202,188.65Z" transform="translate(-116.2 -32)"/><path class="cls-5" d="M263.45,177.23c1.77-1,3.23-.18,3.23,1.87a7.19,7.19,0,0,1-3.23,5.62L241,197.66c-1.8,1-3.25.21-3.25-1.84v-37.7A7.18,7.18,0,0,1,241,152.5l22.18-12.78c1.77-1,3.22-.21,3.22,1.84a7.22,7.22,0,0,1-3.22,5.63l-19,10.93v10.67l17.61-10.15c1.79-1,3.22-.21,3.22,1.88a7.09,7.09,0,0,1-3.22,5.59l-17.61,10.15v12.05Z" transform="translate(-116.2 -32)"/><path class="cls-5" d="M274.75,137.45c-.45-1.76.62-4.4,2.34-5.91s3.49-1.3,3.93.47l5.49,22,6.56-29.1c.5-2.26,2.31-4.43,4-4.84a1.77,1.77,0,0,1,2.23,1.49L305.61,143l5.79-28.6c.47-2.24,2.24-4.48,4-5s2.75,1,2.31,3.26l-8.77,43.33h0a7.78,7.78,0,0,1-2.21,3.93c-1.72,1.54-3.52,1.44-4-.25l-6.56-22.31-6.74,29.93a7.82,7.82,0,0,1-2.34,4c-1.73,1.49-3.49,1.3-3.93-.47Z" transform="translate(-116.2 -32)"/><path class="cls-5" d="M350,89.45c1.77-1,3.23-.23,3.23,1.83a7.17,7.17,0,0,1-3.2,5.59l-19.68,11.48v11.4l20.57-11.87c1.79-1,3.25-.2,3.25,1.87v18.83a7.17,7.17,0,0,1-3.25,5.62l-23.79,13.74c-1.8,1-3.26.19-3.26-1.87a7.22,7.22,0,0,1,3.26-5.63l20.56-11.86V117.23L327.15,129.1c-1.8,1-3.26.2-3.26-1.88V108.4l0,0a7.07,7.07,0,0,1,3.2-5.57Z" transform="translate(-116.2 -32)"/><path class="cls-9" d="M270.84,227.36v22.23a7.23,7.23,0,0,1-3.15,5.47l-.1.05-71,41-.08.05c-1.76,1-3.17.11-3.17-1.92v-8.41l11.55-16.61,26.66-.08c1.38,0,2.94-1.15,4.09-2.78l26.94-38.45Z" transform="translate(-116.2 -32)"/><path class="cls-5" d="M352.89,276.9c1.77-1,3.23-.18,3.23,1.87a7.18,7.18,0,0,1-3.23,5.62L194.7,375.71c-1.77,1-3.22.21-3.22-1.87a7.15,7.15,0,0,1,3.22-5.6Z" transform="translate(-116.2 -32)"/><polygon class="cls-10" points="59.51 122.97 59.61 122.79 60.78 121.31 62 119.93 63.31 118.63 64.63 117.45 66.03 116.41 67.47 115.5 245.8 12.6 247.91 11.59 249.91 10.96 251.84 10.73 253.62 10.85 255.25 11.38 236.69 0.68 235.08 0.16 233.31 0 231.38 0.24 229.35 0.89 227.27 1.9 48.91 104.81 47.5 105.72 46.1 106.75 44.77 107.93 43.47 109.23 42.24 110.61 41.08 112.09 40.97 112.27 59.51 122.97"/><path class="cls-10" d="M151,169.24l-20.67,11.92-1.44.91-1.37,1.06-1.36,1.18-1.3,1.28-1.23,1.4-1.14,1.48L121.43,190l-1,1.62-.55,1,17.83,10.29.55-.94c.31-.58.64-1.09,1-1.64s.71-1,1.1-1.57.76-1,1.14-1.48.81-.94,1.25-1.38.84-.88,1.28-1.3.88-.8,1.35-1.17.92-.71,1.39-1,.93-.62,1.43-.92l2.84-1.63Z" transform="translate(-116.2 -32)"/></svg>