<svg height="512" viewBox="0 0 32 32" width="512" xmlns="http://www.w3.org/2000/svg"><g id="Layer_2" data-name="Layer 2"><path d="m27.12 13.12a3.015 3.015 0 0 1 -2.12.88 3.045 3.045 0 0 1 -.95-.15l-1.24-.41-.45.44a8.019 8.019 0 1 1 -4.24-4.24l.45-.45-.42-1.24a2.99 2.99 0 0 1 .73-3.07l.22-.22a12.85 12.85 0 0 0 -4.1-.66 12.988 12.988 0 1 0 12.34 8.9z"/><path d="m16.55 11.21a5.633 5.633 0 0 0 -1.55-.21 6 6 0 1 0 6 6 5.633 5.633 0 0 0 -.21-1.55l-3.67 3.67a3 3 0 1 1 -4.24-4.24z"/><path d="m29.974 6.77a1 1 0 0 0 -.658-.719l-2.525-.842-.843-2.525a1 1 0 0 0 -1.655-.391l-4 4a1 1 0 0 0 -.241 1.023l.8 2.414-6.563 6.563a1 1 0 1 0 1.414 1.414l6.563-6.563 2.414.8a1.014 1.014 0 0 0 .32.056 1 1 0 0 0 .707-.293l4-4a1 1 0 0 0 .267-.937z"/></g></svg>