<svg id="Capa_1" enable-background="new 0 0 512 512" height="512" viewBox="0 0 512 512" width="512" xmlns="http://www.w3.org/2000/svg"><g><path d="m331 76c0-41.353-33.647-76-75-76s-75 34.647-75 76 33.647 75 75 75 75-33.647 75-75z"/><path d="m61 301h390v-60h-30v-83.027l-51.68-34.453-16.64 24.96 38.32 25.547v66.973h-31.516c-7.357-50.75-50.729-90-103.484-90s-96.127 39.25-103.484 90h-31.516v-66.973l38.32-25.547-16.64-24.96-51.68 34.453v83.027h-30z"/><path d="m388.704 331h-265.408l30.004 180 205.4 1z"/></g></svg>