<svg height="512" viewBox="0 0 512 512" width="512" xmlns="http://www.w3.org/2000/svg"><g id="Layer_9" data-name="Layer 9"><path d="m337.79 35.1a30.11 30.11 0 0 0 -18.78 4c-52.11 23.93-104.5 54-156.79 85-13.82 16.62-26.37 50.23-26.37 95.73 0 7.88-5.83 14.24-13 14.19s-13-6.41-13-14.19c0-29.42 4.88-56.83 13.49-79.45a135.86 135.86 0 0 1 -27.34 3.9q-13.24.54-26.46 1.21c-38.54 2.41-69.54 36.29-69.54 74.32 0 38 31 71.91 69.55 74.32q13.22.66 26.46 1.2a137.2 137.2 0 0 1 64.64 19.27c52.81 31.31 105.73 61.75 158.36 85.92a30.24 30.24 0 0 0 18.78 4c40.73-6.16 73.45-90.54 73.45-184.71s-32.72-178.56-73.45-184.71zm21.79 290.75c-8.9 26.08-18.3 37-21.79 39.72-3.5-2.06-12.9-11.1-21.83-36.63-10.21-29.17-15.85-68.21-15.85-109.13s5.64-80 15.85-109.14c8.93-25.53 18.33-34.57 21.83-36.67 3.49 2.7 12.89 13.65 21.79 39.72 10.17 29.82 15.76 67.14 15.76 106.05s-5.59 76.23-15.76 106.08z"/><path d="m365.58 219.81a37.89 37.89 0 0 0 -37.89-37.9h-7.23a7.19 7.19 0 0 0 -7.17 6.57c-.88 10.18-1.33 20.66-1.33 31.33s.45 21.14 1.33 31.32a7.19 7.19 0 0 0 7.17 6.57h7.23a37.89 37.89 0 0 0 37.89-37.89z"/><path d="m439.72 153.25a19 19 0 0 1 -7.41-36.43l40.6-17.2a19 19 0 0 1 14.8 34.93l-40.6 17.2a19 19 0 0 1 -7.39 1.5z"/><path d="m493 237.21h-41.4a19 19 0 1 1 0-37.92h41.4a19 19 0 0 1 0 37.92z"/><path d="m480.3 338.39a19 19 0 0 1 -7.39-1.51l-40.6-17.2a19 19 0 1 1 14.8-34.92l40.6 17.2a19 19 0 0 1 -7.41 36.43z"/><path d="m148.43 328.3a119.72 119.72 0 0 0 -53.15-15c-7.43-.3-14.93-.64-22.39-1a499.23 499.23 0 0 0 16.68 133c6.43 24.15 29.43 37.17 48.83 29.7s29.3-29.2 24.06-49.12a423.4 423.4 0 0 1 -14.03-97.58z"/></g></svg>